<svg width="24" height="24" viewBox="0 0 24 24" fill="none" xmlns="http://www.w3.org/2000/svg">
<path d="M8.31855 18.7158C8.31855 18.625 8.22984 18.5341 8.09677 18.5341C7.96371 18.5341 7.875 18.625 7.875 18.7158C7.875 18.8067 7.96371 18.8975 8.09677 18.8521C8.22984 18.8521 8.31855 18.8067 8.31855 18.7158ZM6.94355 18.4887C6.94355 18.5795 7.03226 18.7158 7.16532 18.7158C7.25403 18.7612 7.3871 18.7158 7.43145 18.625C7.43145 18.5341 7.3871 18.4433 7.25403 18.3978C7.12097 18.3524 6.9879 18.3978 6.94355 18.4887ZM8.93952 18.4433C8.80645 18.4433 8.71774 18.5341 8.71774 18.6704C8.71774 18.7612 8.85081 18.8067 8.98387 18.7612C9.11694 18.7158 9.20565 18.6704 9.16129 18.5795C9.16129 18.4887 9.02823 18.3978 8.93952 18.4433ZM11.8226 1C5.70161 1 1 5.81507 1 12.0837C1 17.1259 4.06048 21.4413 8.49597 22.9858C9.07258 23.0766 9.25 22.7132 9.25 22.4407C9.25 22.1227 9.25 20.5782 9.25 19.6243C9.25 19.6243 6.14516 20.3057 5.47984 18.2616C5.47984 18.2616 4.99194 16.9442 4.28226 16.6263C4.28226 16.6263 3.2621 15.8994 4.32661 15.8994C4.32661 15.8994 5.43548 15.9903 6.05645 17.0805C7.03226 18.8521 8.62903 18.3524 9.29435 18.0344C9.38306 17.3076 9.64919 16.808 10.004 16.49C7.52016 16.2174 4.99194 15.854 4.99194 11.4932C4.99194 10.2213 5.34677 9.63078 6.05645 8.81313C5.92339 8.49515 5.56855 7.3141 6.18952 5.72422C7.07661 5.45166 9.25 6.95069 9.25 6.95069C10.1371 6.67814 11.0685 6.58729 12 6.58729C12.9758 6.58729 13.9073 6.67814 14.7944 6.95069C14.7944 6.95069 16.9234 5.40624 17.8548 5.72422C18.4758 7.3141 18.0766 8.49515 17.9879 8.81313C18.6976 9.63078 19.1411 10.2213 19.1411 11.4932C19.1411 15.854 16.5242 16.2174 14.0403 16.49C14.4395 16.8534 14.7944 17.5348 14.7944 18.625C14.7944 20.124 14.75 22.0318 14.75 22.3952C14.75 22.7132 14.9718 23.0766 15.5484 22.9403C19.9839 21.4413 23 17.1259 23 12.0837C23 5.81507 17.9879 1 11.8226 1ZM5.30242 16.6717C5.21371 16.7171 5.25806 16.8534 5.30242 16.9442C5.39113 16.9897 5.47984 17.0351 5.56855 16.9897C5.6129 16.9442 5.6129 16.808 5.52419 16.7171C5.43548 16.6717 5.34677 16.6263 5.30242 16.6717ZM4.81452 16.3083C4.77016 16.3991 4.81452 16.4445 4.90323 16.49C4.99194 16.5354 5.08065 16.5354 5.125 16.4445C5.125 16.3991 5.08065 16.3537 4.99194 16.3083C4.90323 16.2628 4.85887 16.2628 4.81452 16.3083ZM6.23387 17.9436C6.18952 17.989 6.18952 18.1253 6.32258 18.2161C6.41129 18.307 6.54435 18.3524 6.58871 18.2616C6.63306 18.2161 6.63306 18.0799 6.54435 17.989C6.45565 17.8982 6.32258 17.8527 6.23387 17.9436ZM5.74597 17.2622C5.65726 17.3076 5.65726 17.4439 5.74597 17.5348C5.83468 17.6256 5.92339 17.671 6.0121 17.6256C6.05645 17.5802 6.05645 17.4439 6.0121 17.3531C5.92339 17.2622 5.83468 17.2168 5.74597 17.2622Z" fill="white"/>
</svg>
