<svg viewBox="0 1984.5375286595736 1285.4008438818564 730.0069928311784" xmlns="http://www.w3.org/2000/svg" version="1.1" style="max-height: 500px" width="1285.4008438818564" height="730.0069928311784"><metadata/><defs><style class="style-fonts">
      @font-face { font-family: Nunito; src: url(https://unpkg.com/@excalidraw/excalidraw@undefined/dist/prod/fonts/Nunito/Nunito-Regular-XRXI3I6Li01BKofiOc5wtlZ2di8HDIkhdTQ3j6zbXWjgeg-S2BZMVTH.woff2); }</style></defs><rect fill="#ffffff" height="2703.7296030784382" width="1280" y="0" x="0"/><g stroke-linecap="round"><g transform="translate(889 810.5423583428667) rotate(0 -298.3590785277902 782.3110840868792)"><path fill="none" stroke-width="4" stroke="#ffd43b" d="M0 0 C-78.01 37.2, -368.58 -37.58, -468.04 223.19 C-567.49 483.96, -575.27 1341.05, -596.72 1564.62 M0 0 C-78.01 37.2, -368.58 -37.58, -468.04 223.19 C-567.49 483.96, -575.27 1341.05, -596.72 1564.62"/></g><g transform="translate(889 810.5423583428667) rotate(0 -298.3590785277902 782.3110840868792)"><path fill="none" stroke-width="4" stroke="#ffd43b" d="M-603.98 1540.7 C-602.29 1546.25, -600.61 1551.8, -596.72 1564.62 M-603.98 1540.7 C-601.63 1548.44, -599.28 1556.18, -596.72 1564.62"/></g><g transform="translate(889 810.5423583428667) rotate(0 -298.3590785277902 782.3110840868792)"><path fill="none" stroke-width="4" stroke="#ffd43b" d="M-586.9 1541.63 C-589.18 1546.96, -591.46 1552.3, -596.72 1564.62 M-586.9 1541.63 C-590.08 1549.07, -593.25 1556.5, -596.72 1564.62"/></g></g><mask/><g transform="translate(10 1993.729603078438) rotate(0 630 350)" stroke-linecap="round"><path fill="none" stroke-width="4" stroke="#116466" d="M32 0 C449.9 0, 867.8 0, 1228 0 M32 0 C444.21 0, 856.41 0, 1228 0 M1228 0 C1249.33 0, 1260 10.67, 1260 32 M1228 0 C1249.33 0, 1260 10.67, 1260 32 M1260 32 C1260 233.73, 1260 435.46, 1260 668 M1260 32 C1260 228.56, 1260 425.13, 1260 668 M1260 668 C1260 689.33, 1249.33 700, 1228 700 M1260 668 C1260 689.33, 1249.33 700, 1228 700 M1228 700 C925.16 700, 622.32 700, 32 700 M1228 700 C931.63 700, 635.26 700, 32 700 M32 700 C10.67 700, 0 689.33, 0 668 M32 700 C10.67 700, 0 689.33, 0 668 M0 668 C0 495.78, 0 323.55, 0 32 M0 668 C0 519.81, 0 371.62, 0 32 M0 32 C0 10.67, 10.67 0, 32 0 M0 32 C0 10.67, 10.67 0, 32 0"/></g><g transform="translate(230 2453.7296030784382) rotate(0 80 30)" stroke-linecap="round"><path fill="none" stroke-width="2" stroke="#ffd43b" d="M3.99 3.47 C3.99 3.47, 3.99 3.47, 3.99 3.47 M3.99 3.47 C3.99 3.47, 3.99 3.47, 3.99 3.47 M0.98 31.33 C9.98 20.97, 18.99 10.61, 27.88 0.38 M0.98 31.33 C8.18 23.04, 15.38 14.76, 27.88 0.38 M2.56 53.9 C16.7 37.63, 30.83 21.37, 49.14 0.31 M2.56 53.9 C19.91 33.94, 37.26 13.98, 49.14 0.31 M17.91 60.62 C36.89 38.79, 55.86 16.96, 69.74 1 M17.91 60.62 C33.3 42.93, 48.68 25.23, 69.74 1 M39.17 60.55 C52.75 44.93, 66.33 29.31, 91 0.93 M39.17 60.55 C52.1 45.68, 65.03 30.81, 91 0.93 M60.43 60.48 C80.41 37.5, 100.39 14.51, 112.26 0.86 M60.43 60.48 C73.72 45.2, 87 29.92, 112.26 0.86 M81.69 60.41 C96.83 43, 111.97 25.58, 133.52 0.79 M81.69 60.41 C100.04 39.31, 118.39 18.2, 133.52 0.79 M102.95 60.35 C113.29 48.45, 123.64 36.55, 153.47 2.23 M102.95 60.35 C122.34 38.05, 141.72 15.75, 153.47 2.23 M124.21 60.28 C135.54 47.25, 146.87 34.22, 159.64 19.52 M124.21 60.28 C137.84 44.6, 151.47 28.93, 159.64 19.52 M145.47 60.21 C150 55, 154.53 49.79, 159.91 43.6 M145.47 60.21 C151.08 53.76, 156.68 47.32, 159.91 43.6"/><path fill="none" stroke-width="4" stroke="#116466" d="M15 0 C62.17 0, 109.34 0, 145 0 M15 0 C63.51 0, 112.03 0, 145 0 M145 0 C155 0, 160 5, 160 15 M145 0 C155 0, 160 5, 160 15 M160 15 C160 26.25, 160 37.49, 160 45 M160 15 C160 25.35, 160 35.69, 160 45 M160 45 C160 55, 155 60, 145 60 M160 45 C160 55, 155 60, 145 60 M145 60 C111.61 60, 78.22 60, 15 60 M145 60 C98.45 60, 51.89 60, 15 60 M15 60 C5 60, 0 55, 0 45 M15 60 C5 60, 0 55, 0 45 M0 45 C0 33.49, 0 21.99, 0 15 M0 45 C0 36.33, 0 27.65, 0 15 M0 15 C0 5, 5 0, 15 0 M0 15 C0 5, 5 0, 15 0"/></g><g transform="translate(238.8000030517578 2464.829603078438) rotate(0 71.19999694824219 18.899999999999977)"><text direction="ltr" style="white-space: pre;" text-anchor="middle" fill="#116466" font-size="28px" font-family="Nunito, Segoe UI Emoji" y="28.112000000000002" x="71.19999694824219">Private Key</text></g><g transform="translate(490 2453.7296030784382) rotate(0 80 30)" stroke-linecap="round"><path fill="none" stroke-width="2" stroke="#b2f2bb" d="M3.99 3.47 C3.99 3.47, 3.99 3.47, 3.99 3.47 M3.99 3.47 C3.99 3.47, 3.99 3.47, 3.99 3.47 M0.98 31.33 C8.58 22.59, 16.17 13.85, 27.88 0.38 M0.98 31.33 C10.58 20.28, 20.18 9.24, 27.88 0.38 M2.56 53.9 C18.15 35.96, 33.74 18.03, 49.14 0.31 M2.56 53.9 C20.56 33.19, 38.57 12.47, 49.14 0.31 M17.91 60.62 C37.92 37.61, 57.93 14.59, 69.74 1 M17.91 60.62 C31.57 44.92, 45.22 29.21, 69.74 1 M39.17 60.55 C56.36 40.78, 73.55 21.01, 91 0.93 M39.17 60.55 C51.97 45.83, 64.77 31.11, 91 0.93 M60.43 60.48 C71.28 48.01, 82.12 35.53, 112.26 0.86 M60.43 60.48 C77.32 41.06, 94.2 21.64, 112.26 0.86 M81.69 60.41 C97.51 42.22, 113.33 24.02, 133.52 0.79 M81.69 60.41 C92.68 47.78, 103.66 35.14, 133.52 0.79 M102.95 60.35 C116.13 45.19, 129.3 30.04, 153.47 2.23 M102.95 60.35 C119.85 40.91, 136.75 21.47, 153.47 2.23 M124.21 60.28 C137.61 44.86, 151.01 29.45, 159.64 19.52 M124.21 60.28 C132.47 50.77, 140.73 41.27, 159.64 19.52 M145.47 60.21 C150.2 54.77, 154.92 49.34, 159.91 43.6 M145.47 60.21 C150.56 54.36, 155.64 48.51, 159.91 43.6"/><path fill="none" stroke-width="4" stroke="#116466" d="M15 0 C54.53 0, 94.06 0, 145 0 M15 0 C65.57 0, 116.14 0, 145 0 M145 0 C155 0, 160 5, 160 15 M145 0 C155 0, 160 5, 160 15 M160 15 C160 26.36, 160 37.72, 160 45 M160 15 C160 21.72, 160 28.44, 160 45 M160 45 C160 55, 155 60, 145 60 M160 45 C160 55, 155 60, 145 60 M145 60 C112.63 60, 80.26 60, 15 60 M145 60 C118.61 60, 92.22 60, 15 60 M15 60 C5 60, 0 55, 0 45 M15 60 C5 60, 0 55, 0 45 M0 45 C0 35.8, 0 26.6, 0 15 M0 45 C0 38.5, 0 31.99, 0 15 M0 15 C0 5, 5 0, 15 0 M0 15 C0 5, 5 0, 15 0"/></g><g transform="translate(504.03333282470703 2464.829603078438) rotate(0 65.96666717529297 18.899999999999977)"><text direction="ltr" style="white-space: pre;" text-anchor="middle" fill="#116466" font-size="28px" font-family="Nunito, Segoe UI Emoji" y="28.112000000000002" x="65.96666717529297">Public Key</text></g><g stroke-linecap="round"><g transform="translate(880.7132855411883 10) rotate(0 162.98575114717642 1214.8648015392191)"><path fill="none" stroke-width="4" stroke="#1971c2" d="M0 0 C54.88 53.95, 329.84 -81.23, 329.29 323.73 C328.73 728.68, 52.12 2078.73, -3.32 2429.73 M0 0 C54.88 53.95, 329.84 -81.23, 329.29 323.73 C328.73 728.68, 52.12 2078.73, -3.32 2429.73"/></g><g transform="translate(880.7132855411883 10) rotate(0 162.98575114717642 1214.8648015392191)"><path fill="none" stroke-width="4" stroke="#1971c2" d="M-7.56 2405.09 C-6.31 2412.34, -5.06 2419.59, -3.32 2429.73 M-7.56 2405.09 C-5.96 2414.37, -4.36 2423.66, -3.32 2429.73"/></g><g transform="translate(880.7132855411883 10) rotate(0 162.98575114717642 1214.8648015392191)"><path fill="none" stroke-width="4" stroke="#1971c2" d="M9.27 2408.13 C5.57 2414.49, 1.86 2420.84, -3.32 2429.73 M9.27 2408.13 C4.53 2416.27, -0.21 2424.41, -3.32 2429.73"/></g></g><mask/><g transform="translate(730 2453.7296030784382) rotate(0 150 30)" stroke-linecap="round"><path fill="none" stroke-width="2" stroke="#a5d8ff" d="M3.99 3.47 C3.99 3.47, 3.99 3.47, 3.99 3.47 M3.99 3.47 C3.99 3.47, 3.99 3.47, 3.99 3.47 M0.32 32.08 C9.18 21.89, 18.04 11.7, 27.88 0.38 M0.32 32.08 C7.96 23.3, 15.59 14.51, 27.88 0.38 M2.56 53.9 C18.38 35.7, 34.19 17.5, 49.14 0.31 M2.56 53.9 C12.65 42.28, 22.75 30.67, 49.14 0.31 M18.57 59.87 C29.41 47.39, 40.26 34.91, 69.74 1 M18.57 59.87 C34.53 41.5, 50.5 23.14, 69.74 1 M39.83 59.8 C55.93 41.28, 72.02 22.76, 91 0.93 M39.83 59.8 C50.1 47.98, 60.37 36.16, 91 0.93 M61.09 59.73 C76.29 42.24, 91.49 24.75, 112.26 0.86 M61.09 59.73 C72.31 46.82, 83.54 33.91, 112.26 0.86 M81.69 60.41 C101.85 37.22, 122.02 14.03, 133.52 0.79 M81.69 60.41 C102.21 36.81, 122.73 13.2, 133.52 0.79 M102.95 60.35 C118.81 42.1, 134.67 23.86, 154.78 0.72 M102.95 60.35 C115.62 45.77, 128.29 31.19, 154.78 0.72 M124.21 60.28 C142.66 39.06, 161.11 17.83, 176.04 0.65 M124.21 60.28 C142.79 38.91, 161.37 17.53, 176.04 0.65 M145.47 60.21 C163.39 39.6, 181.3 19, 197.3 0.59 M145.47 60.21 C156.07 48.01, 166.68 35.82, 197.3 0.59 M166.73 60.14 C181.58 43.06, 196.43 25.98, 218.56 0.52 M166.73 60.14 C183.13 41.27, 199.53 22.41, 218.56 0.52 M187.99 60.07 C203.41 42.34, 218.82 24.6, 239.17 1.2 M187.99 60.07 C202.76 43.08, 217.52 26.1, 239.17 1.2 M209.25 60 C226.14 40.58, 243.02 21.16, 260.43 1.13 M209.25 60 C228.18 38.23, 247.1 16.46, 260.43 1.13 M230.51 59.93 C242.6 46.03, 254.69 32.12, 281.69 1.06 M230.51 59.93 C243.68 44.78, 256.85 29.63, 281.69 1.06 M251.12 60.62 C265.94 43.57, 280.75 26.53, 298.35 6.28 M251.12 60.62 C264.83 44.84, 278.55 29.06, 298.35 6.28 M272.38 60.55 C283.18 48.12, 293.98 35.7, 299.93 28.85 M272.38 60.55 C279.1 52.82, 285.81 45.1, 299.93 28.85"/><path fill="none" stroke-width="4" stroke="#116466" d="M15 0 C121.26 0, 227.52 0, 285 0 M15 0 C86.61 0, 158.22 0, 285 0 M285 0 C295 0, 300 5, 300 15 M285 0 C295 0, 300 5, 300 15 M300 15 C300 23.15, 300 31.3, 300 45 M300 15 C300 24.05, 300 33.11, 300 45 M300 45 C300 55, 295 60, 285 60 M300 45 C300 55, 295 60, 285 60 M285 60 C191.44 60, 97.88 60, 15 60 M285 60 C217.41 60, 149.81 60, 15 60 M15 60 C5 60, 0 55, 0 45 M15 60 C5 60, 0 55, 0 45 M0 45 C0 33.92, 0 22.84, 0 15 M0 45 C0 37.83, 0 30.66, 0 15 M0 15 C0 5, 5 0, 15 0 M0 15 C0 5, 5 0, 15 0"/></g><g transform="translate(735.6000061035156 2464.829603078438) rotate(0 144.39999389648438 18.899999999999977)"><text direction="ltr" style="white-space: pre;" text-anchor="middle" fill="#116466" font-size="28px" font-family="Nunito, Segoe UI Emoji" y="28.112000000000002" x="144.39999389648438">24 word recovery code</text></g><g stroke-linecap="round"><g transform="translate(894.5789388589892 1214.729603078438) rotate(0 -119.17651830204659 611.7488131697974)"><path fill="none" stroke-width="4" stroke="#2f9e44" d="M0 0 C12.57 66.5, 130.12 195.08, 75.42 399 C20.72 602.92, -260.93 1086.08, -328.2 1223.5 M0 0 C12.57 66.5, 130.12 195.08, 75.42 399 C20.72 602.92, -260.93 1086.08, -328.2 1223.5"/></g><g transform="translate(894.5789388589892 1214.729603078438) rotate(0 -119.17651830204659 611.7488131697974)"><path fill="none" stroke-width="4" stroke="#2f9e44" d="M-324.72 1198.74 C-325.79 1206.38, -326.87 1214.01, -328.2 1223.5 M-324.72 1198.74 C-326.05 1208.25, -327.39 1217.75, -328.2 1223.5"/></g><g transform="translate(894.5789388589892 1214.729603078438) rotate(0 -119.17651830204659 611.7488131697974)"><path fill="none" stroke-width="4" stroke="#2f9e44" d="M-309.62 1206.78 C-315.35 1211.93, -321.08 1217.09, -328.2 1223.5 M-309.62 1206.78 C-316.75 1213.2, -323.89 1219.62, -328.2 1223.5"/></g></g><mask/><g stroke-linecap="round" mask="url(#mask-xCdCNMnB1skYVBZEqp5v0)"><g transform="translate(590 1773.729603078438) rotate(0 -50 150)"><path fill="none" stroke-width="4" stroke="#9775fa" d="M0 0 C-16.67 50, -83.33 250, -100 300 M0 0 C-16.67 50, -83.33 250, -100 300"/></g><g transform="translate(590 1773.729603078438) rotate(0 -50 150)"><path fill="none" stroke-width="4" stroke="#9775fa" d="M-100.68 275.01 C-100.43 284.18, -100.18 293.35, -100 300 M-100.68 275.01 C-100.51 281.29, -100.34 287.56, -100 300"/></g><g transform="translate(590 1773.729603078438) rotate(0 -50 150)"><path fill="none" stroke-width="4" stroke="#9775fa" d="M-84.46 280.42 C-90.16 287.6, -95.86 294.79, -100 300 M-84.46 280.42 C-88.36 285.34, -92.27 290.26, -100 300"/></g></g><mask id="mask-xCdCNMnB1skYVBZEqp5v0"><rect height="2173.7296030784382" width="790" fill="#fff" y="0" x="0"/><rect opacity="1" height="37.800000000000004" width="169.89999389648438" fill="#000" y="1904.829603078438" x="455.0500030517578"/></mask><g transform="translate(455.0500030517578 1904.8296030784381) rotate(0 84.94999694824219 18.899999999999977)"><text direction="ltr" style="white-space: pre;" text-anchor="middle" fill="#9775fa" font-size="28px" font-family="Nunito, Segoe UI Emoji" y="28.112000000000002" x="84.94999694824219">KDF Function</text></g><g transform="translate(70 2033.729603078438) rotate(0 94.9000015258789 18.900000000000006)"><text direction="ltr" style="white-space: pre;" text-anchor="middle" fill="#116466" font-size="28px" font-family="Nunito, Segoe UI Emoji" y="28.112000000000002" x="94.9000015258789">6. Final Output</text></g><g transform="translate(390 2093.7296030784382) rotate(0 90 30)" stroke-linecap="round"><path fill="none" stroke-width="2" stroke="#9775fa" d="M3.99 3.47 C3.99 3.47, 3.99 3.47, 3.99 3.47 M3.99 3.47 C3.99 3.47, 3.99 3.47, 3.99 3.47 M0.98 31.33 C9.57 21.44, 18.16 11.56, 27.88 0.38 M0.98 31.33 C6.61 24.84, 12.25 18.36, 27.88 0.38 M2.56 53.9 C11.97 43.08, 21.37 32.25, 49.14 0.31 M2.56 53.9 C18.09 36.03, 33.63 18.16, 49.14 0.31 M17.91 60.62 C32.01 44.41, 46.1 28.19, 69.74 1 M17.91 60.62 C33.35 42.86, 48.78 25.11, 69.74 1 M39.17 60.55 C51.37 46.52, 63.57 32.49, 91 0.93 M39.17 60.55 C51.05 46.89, 62.92 33.24, 91 0.93 M60.43 60.48 C77.76 40.55, 95.09 20.61, 112.26 0.86 M60.43 60.48 C75.45 43.21, 90.46 25.94, 112.26 0.86 M81.69 60.41 C94.84 45.29, 107.98 30.17, 133.52 0.79 M81.69 60.41 C95.76 44.23, 109.84 28.04, 133.52 0.79 M102.95 60.35 C114.68 46.86, 126.4 33.37, 154.78 0.72 M102.95 60.35 C123.15 37.11, 143.35 13.88, 154.78 0.72 M124.21 60.28 C141.18 40.75, 158.15 21.23, 174.07 2.92 M124.21 60.28 C137.99 44.43, 151.77 28.58, 174.07 2.92 M145.47 60.21 C153.84 50.58, 162.2 40.96, 179.59 20.96 M145.47 60.21 C158.24 45.52, 171.02 30.83, 179.59 20.96 M166.73 60.14 C170.11 56.25, 173.49 52.37, 179.86 45.04 M166.73 60.14 C171.08 55.14, 175.42 50.14, 179.86 45.04"/><path fill="none" stroke-width="4" stroke="#116466" d="M15 0 C71.23 0, 127.47 0, 165 0 M15 0 C66.73 0, 118.47 0, 165 0 M165 0 C175 0, 180 5, 180 15 M165 0 C175 0, 180 5, 180 15 M180 15 C180 22.71, 180 30.41, 180 45 M180 15 C180 25.74, 180 36.49, 180 45 M180 45 C180 55, 175 60, 165 60 M180 45 C180 55, 175 60, 165 60 M165 60 C107.47 60, 49.95 60, 15 60 M165 60 C121.64 60, 78.27 60, 15 60 M15 60 C5 60, 0 55, 0 45 M15 60 C5 60, 0 55, 0 45 M0 45 C0 36.93, 0 28.86, 0 15 M0 45 C0 33.1, 0 21.2, 0 15 M0 15 C0 5, 5 0, 15 0 M0 15 C0 5, 5 0, 15 0"/></g><g transform="translate(403.41666412353516 2104.829603078438) rotate(0 76.58333587646484 18.899999999999977)"><text direction="ltr" style="white-space: pre;" text-anchor="middle" fill="#116466" font-size="28px" font-family="Nunito, Segoe UI Emoji" y="28.112000000000002" x="76.58333587646484">256 bit DEK</text></g><g transform="translate(190 2373.7296030784382) rotate(0 250 110)" stroke-linecap="round"><path fill="none" stroke-width="4" stroke="#116466" d="M32 0 C197.11 0, 362.23 0, 468 0 M32 0 C129.64 0, 227.28 0, 468 0 M468 0 C489.33 0, 500 10.67, 500 32 M468 0 C489.33 0, 500 10.67, 500 32 M500 32 C500 70.85, 500 109.69, 500 188 M500 32 C500 63.67, 500 95.33, 500 188 M500 188 C500 209.33, 489.33 220, 468 220 M500 188 C500 209.33, 489.33 220, 468 220 M468 220 C334.31 220, 200.62 220, 32 220 M468 220 C373.48 220, 278.97 220, 32 220 M32 220 C10.67 220, 0 209.33, 0 188 M32 220 C10.67 220, 0 209.33, 0 188 M0 188 C0 130.29, 0 72.58, 0 32 M0 188 C0 148.82, 0 109.64, 0 32 M0 32 C0 10.67, 10.67 0, 32 0 M0 32 C0 10.67, 10.67 0, 32 0"/></g><g transform="translate(263.8666687011719 2389.2296030784382) rotate(0 176.13333129882812 94.5)"><text direction="ltr" style="white-space: pre;" text-anchor="middle" fill="#116466" font-size="20px" font-family="Nunito, Segoe UI Emoji" y="20.08" x="176.13333129882812"/><text direction="ltr" style="white-space: pre;" text-anchor="middle" fill="#116466" font-size="20px" font-family="Nunito, Segoe UI Emoji" y="47.08" x="176.13333129882812"/><text direction="ltr" style="white-space: pre;" text-anchor="middle" fill="#116466" font-size="20px" font-family="Nunito, Segoe UI Emoji" y="74.08" x="176.13333129882812"/><text direction="ltr" style="white-space: pre;" text-anchor="middle" fill="#116466" font-size="20px" font-family="Nunito, Segoe UI Emoji" y="101.08" x="176.13333129882812"/><text direction="ltr" style="white-space: pre;" text-anchor="middle" fill="#116466" font-size="20px" font-family="Nunito, Segoe UI Emoji" y="128.07999999999998" x="176.13333129882812"/><text direction="ltr" style="white-space: pre;" text-anchor="middle" fill="#116466" font-size="20px" font-family="Nunito, Segoe UI Emoji" y="155.07999999999998" x="176.13333129882812"/><text direction="ltr" style="white-space: pre;" text-anchor="middle" fill="#116466" font-size="20px" font-family="Nunito, Segoe UI Emoji" y="182.07999999999998" x="176.13333129882812">Both Keys are 32 bytes (256 bits) long.</text></g><g transform="translate(341.8538106760343 2386.56991196091) rotate(0 105.61666870117188 24.30000000000001)"><text direction="ltr" style="white-space: pre;" text-anchor="middle" fill="#116466" font-size="36px" font-family="Nunito, Segoe UI Emoji" y="36.144000000000005" x="105.61666870117188">Final Keypair</text></g><g transform="translate(190 2633.7296030784382) rotate(0 251.21665954589844 13.5)"><text direction="ltr" style="white-space: pre;" text-anchor="middle" fill="#116466" font-size="20px" font-family="Nunito, Segoe UI Emoji" y="20.08" x="251.21665954589844">Comparison: 256-bit Ed25519 = 3072-bit RSA security.</text></g><g transform="translate(770 2633.7296030784382) rotate(0 170 27)"><text direction="ltr" style="white-space: pre;" text-anchor="middle" fill="#116466" font-size="20px" font-family="Nunito, Segoe UI Emoji" y="20.08" x="170">Encoding method: Public key can be</text><text direction="ltr" style="white-space: pre;" text-anchor="middle" fill="#116466" font-size="20px" font-family="Nunito, Segoe UI Emoji" y="47.08" x="170">stored using multibase base32z.</text></g></svg>