<svg viewBox="0 99.39599999999999 1280 723.3820000000001" xmlns="http://www.w3.org/2000/svg" version="1.1" style="max-height: 500px" width="1280" height="723.3820000000001"><metadata/><defs><style class="style-fonts">
      @font-face { font-family: Nunito; src: url(https://unpkg.com/@excalidraw/excalidraw@undefined/dist/prod/fonts/Nunito/Nunito-Regular-XRXI3I6Li01BKofiOc5wtlZ2di8HDIkhdTQ3j6zbXWjgeg-S2BZMVTH.woff2); }</style></defs><rect fill="#ffffff" height="2761" width="1280" y="0" x="0"/><g stroke-linecap="round" mask="url(#mask-FXjanKjls7GibUPm3263-)"><g transform="translate(485.75 757) rotate(0 254.52215571001943 173)"><path fill="none" stroke-width="4" stroke="#f08c00" d="M0 0 C57.37 25.5, 259.41 95.33, 344.25 153 C429.09 210.67, 481.58 313.83, 509.04 346 M0 0 C57.37 25.5, 259.41 95.33, 344.25 153 C429.09 210.67, 481.58 313.83, 509.04 346"/></g><g transform="translate(485.75 757) rotate(0 254.52215571001943 173)"><path fill="none" stroke-width="4" stroke="#f08c00" d="M488.53 331.72 C493.25 335.01, 497.98 338.3, 509.04 346 M488.53 331.72 C493.91 335.46, 499.29 339.21, 509.04 346"/></g><g transform="translate(485.75 757) rotate(0 254.52215571001943 173)"><path fill="none" stroke-width="4" stroke="#f08c00" d="M502.51 321.87 C504.01 327.43, 505.52 332.99, 509.04 346 M502.51 321.87 C504.22 328.2, 505.94 334.52, 509.04 346"/></g></g><mask id="mask-FXjanKjls7GibUPm3263-"><rect height="1203" width="1094.7943114200389" fill="#fff" y="0" x="0"/><rect opacity="1" height="75.60000000000001" width="320.76666259765625" fill="#000" y="872.2" x="669.6166687011719"/></mask><g transform="translate(669.6166687011719 872.2) rotate(0 70.65548700884756 57.799999999999955)"><text direction="ltr" style="white-space: pre;" text-anchor="middle" fill="#f08c00" font-size="28px" font-family="Nunito, Segoe UI Emoji" y="28.112000000000002" x="160.38333129882812">Scalar Multiplication step</text><text direction="ltr" style="white-space: pre;" text-anchor="middle" fill="#f08c00" font-size="28px" font-family="Nunito, Segoe UI Emoji" y="65.912" x="160.38333129882812">using Ed25519 Curve</text></g><g stroke-linecap="round" mask="url(#mask-K-63L1w84NnFSqvBWeK63)"><g transform="translate(487.55698421975467 10) rotate(0 137.56912195226505 160.5)"><path fill="none" stroke-width="4" stroke="#e03131" d="M0 0 C45.86 53.5, 229.28 267.5, 275.14 321 M0 0 C45.86 53.5, 229.28 267.5, 275.14 321"/></g><g transform="translate(487.55698421975467 10) rotate(0 137.56912195226505 160.5)"><path fill="none" stroke-width="4" stroke="#e03131" d="M253.36 308.73 C259.61 312.25, 265.86 315.77, 275.14 321 M253.36 308.73 C259.76 312.34, 266.17 315.95, 275.14 321"/></g><g transform="translate(487.55698421975467 10) rotate(0 137.56912195226505 160.5)"><path fill="none" stroke-width="4" stroke="#e03131" d="M266.34 297.6 C268.87 304.31, 271.39 311.03, 275.14 321 M266.34 297.6 C268.93 304.48, 271.52 311.36, 275.14 321"/></g></g><mask id="mask-K-63L1w84NnFSqvBWeK63"><rect height="431" width="862.6952281242851" fill="#fff" y="0" x="0"/><rect opacity="1" height="75.60000000000001" width="255.3333282470703" fill="#000" y="132.70000000000005" x="497.45944204848456"/></mask><g transform="translate(497.45944204848456 132.70000000000005) rotate(0 127.66666412353516 37.799999999999955)"><text direction="ltr" style="white-space: pre;" text-anchor="middle" fill="#e03131" font-size="28px" font-family="Nunito, Segoe UI Emoji" y="28.112000000000002" x="127.66666412353516">PCKDF2 Conversion</text><text direction="ltr" style="white-space: pre;" text-anchor="middle" fill="#e03131" font-size="28px" font-family="Nunito, Segoe UI Emoji" y="65.912" x="127.66666412353516">Function</text></g><g transform="translate(677.5862068965516 345) rotate(0 80 62)" stroke-linecap="round"><path fill="none" stroke-width="2" stroke="#ffc9c9" d="M7.6 7.93 C7.6 7.93, 7.6 7.93, 7.6 7.93 M7.6 7.93 C7.6 7.93, 7.6 7.93, 7.6 7.93 M1.3 39.56 C12.92 26.19, 24.53 12.83, 35.42 0.31 M1.3 39.56 C8.16 31.66, 15.02 23.77, 35.42 0.31 M0.91 64.39 C12.48 51.08, 24.05 37.78, 56.68 0.24 M0.91 64.39 C17.07 45.8, 33.23 27.21, 56.68 0.24 M1.18 88.47 C17.14 70.12, 33.1 51.76, 77.94 0.17 M1.18 88.47 C17.66 69.51, 34.15 50.54, 77.94 0.17 M3.41 110.29 C24.03 86.57, 44.65 62.85, 99.2 0.1 M3.41 110.29 C23.26 87.46, 43.1 64.63, 99.2 0.1 M15.49 120.79 C51.74 79.09, 87.99 37.38, 120.46 0.04 M15.49 120.79 C49.88 81.22, 84.27 41.66, 120.46 0.04 M33.47 124.49 C61.55 92.18, 89.64 59.87, 140.41 1.48 M33.47 124.49 C61.28 92.5, 89.09 60.51, 140.41 1.48 M54.73 124.42 C83.29 91.56, 111.86 58.7, 154.45 9.71 M54.73 124.42 C85.17 89.4, 115.61 54.38, 154.45 9.71 M75.99 124.36 C101.15 95.41, 126.31 66.46, 160.62 27 M75.99 124.36 C107.72 87.85, 139.45 51.35, 160.62 27 M97.25 124.29 C112.55 106.68, 127.86 89.07, 160.23 51.83 M97.25 124.29 C121.51 96.38, 145.76 68.48, 160.23 51.83 M118.51 124.22 C128.8 112.38, 139.09 100.54, 160.5 75.92 M118.51 124.22 C129.02 112.13, 139.52 100.04, 160.5 75.92 M141.08 122.64 C146.88 115.97, 152.68 109.29, 160.11 100.75 M141.08 122.64 C146.34 116.59, 151.6 110.53, 160.11 100.75"/><path fill="none" stroke-width="4" stroke="#116466" d="M31 0 C52.86 0, 74.72 0, 129 0 M31 0 C52.23 0, 73.46 0, 129 0 M129 0 C149.67 0, 160 10.33, 160 31 M129 0 C149.67 0, 160 10.33, 160 31 M160 31 C160 51.21, 160 71.42, 160 93 M160 31 C160 52.44, 160 73.87, 160 93 M160 93 C160 113.67, 149.67 124, 129 124 M160 93 C160 113.67, 149.67 124, 129 124 M129 124 C97.11 124, 65.23 124, 31 124 M129 124 C91.86 124, 54.72 124, 31 124 M31 124 C10.33 124, 0 113.67, 0 93 M31 124 C10.33 124, 0 113.67, 0 93 M0 93 C0 80.38, 0 67.75, 0 31 M0 93 C0 70.28, 0 47.56, 0 31 M0 31 C0 10.33, 10.33 0, 31 0 M0 31 C0 10.33, 10.33 0, 31 0"/></g><g transform="translate(712.1862053706727 350.29999999999995) rotate(0 45.400001525878906 56.700000000000045)"><text direction="ltr" style="white-space: pre;" text-anchor="middle" fill="#116466" font-size="28px" font-family="Nunito, Segoe UI Emoji" y="28.112000000000002" x="45.400001525878906">512 bit</text><text direction="ltr" style="white-space: pre;" text-anchor="middle" fill="#116466" font-size="28px" font-family="Nunito, Segoe UI Emoji" y="65.912" x="45.400001525878906">Binary</text><text direction="ltr" style="white-space: pre;" text-anchor="middle" fill="#116466" font-size="28px" font-family="Nunito, Segoe UI Emoji" y="103.71200000000002" x="45.400001525878906">Seed</text></g><g stroke-linecap="round" mask="url(#mask-PbDs010oypqtAoFQuibuJ)"><g transform="translate(757.5862068965516 465) rotate(0 -90 90)"><path fill="none" stroke-width="4" stroke="#116466" d="M0 0 C-30 30, -150 150, -180 180 M0 0 C-30 30, -150 150, -180 180"/></g><g transform="translate(757.5862068965516 465) rotate(0 -90 90)"><path fill="none" stroke-width="4" stroke="#116466" d="M-169.43 157.34 C-172.1 163.06, -174.77 168.78, -180 180 M-169.43 157.34 C-172.19 163.25, -174.94 169.16, -180 180"/></g><g transform="translate(757.5862068965516 465) rotate(0 -90 90)"><path fill="none" stroke-width="4" stroke="#116466" d="M-157.34 169.43 C-163.06 172.1, -168.78 174.77, -180 180 M-157.34 169.43 C-163.25 172.19, -169.16 174.94, -180 180"/></g></g><mask id="mask-PbDs010oypqtAoFQuibuJ"><rect height="745" width="1037.5862068965516" fill="#fff" y="0" x="0"/><rect opacity="1" height="37.800000000000004" width="199.10000610351562" fill="#000" y="536.0999999999999" x="568.0362038447938"/></mask><g transform="translate(568.0362038447938 536.0999999999999) rotate(0 99.55000305175781 18.90000000000009)"><text direction="ltr" style="white-space: pre;" text-anchor="middle" fill="#116466" font-size="28px" font-family="Nunito, Segoe UI Emoji" y="28.112000000000002" x="99.55000305175781">Truncation Step</text></g><g transform="translate(377.58620689655163 665) rotate(0 100 43)" stroke-linecap="round"><path fill="none" stroke-width="4" stroke="#116466" d="M21.5 0 C63.35 0, 105.2 0, 178.5 0 M21.5 0 C73.19 0, 124.87 0, 178.5 0 M178.5 0 C192.83 0, 200 7.17, 200 21.5 M178.5 0 C192.83 0, 200 7.17, 200 21.5 M200 21.5 C200 38.39, 200 55.28, 200 64.5 M200 21.5 C200 32.1, 200 42.69, 200 64.5 M200 64.5 C200 78.83, 192.83 86, 178.5 86 M200 64.5 C200 78.83, 192.83 86, 178.5 86 M178.5 86 C136.18 86, 93.86 86, 21.5 86 M178.5 86 C141.92 86, 105.34 86, 21.5 86 M21.5 86 C7.17 86, 0 78.83, 0 64.5 M21.5 86 C7.17 86, 0 78.83, 0 64.5 M0 64.5 C0 52.13, 0 39.77, 0 21.5 M0 64.5 C0 47.6, 0 30.71, 0 21.5 M0 21.5 C0 7.17, 7.17 0, 21.5 0 M0 21.5 C0 7.17, 7.17 0, 21.5 0"/></g><g transform="translate(398.58620689655163 670.2) rotate(0 79 37.80000000000001)"><text direction="ltr" style="white-space: pre;" text-anchor="middle" fill="#116466" font-size="28px" font-family="Nunito, Segoe UI Emoji" y="28.112000000000002" x="79">reduced to</text><text direction="ltr" style="white-space: pre;" text-anchor="middle" fill="#116466" font-size="28px" font-family="Nunito, Segoe UI Emoji" y="65.912" x="79">256 bit seed</text></g><g transform="translate(10 110) rotate(0 630 350)" stroke-linecap="round"><path fill="none" stroke-width="4" stroke="#116466" d="M32 0 C313.68 0, 595.37 0, 1228 0 M32 0 C506.46 0, 980.92 0, 1228 0 M1228 0 C1249.33 0, 1260 10.67, 1260 32 M1228 0 C1249.33 0, 1260 10.67, 1260 32 M1260 32 C1260 285.52, 1260 539.03, 1260 668 M1260 32 C1260 220.97, 1260 409.93, 1260 668 M1260 668 C1260 689.33, 1249.33 700, 1228 700 M1260 668 C1260 689.33, 1249.33 700, 1228 700 M1228 700 C873.4 700, 518.8 700, 32 700 M1228 700 C781.44 700, 334.89 700, 32 700 M32 700 C10.67 700, 0 689.33, 0 668 M32 700 C10.67 700, 0 689.33, 0 668 M0 668 C0 469.69, 0 271.38, 0 32 M0 668 C0 433.37, 0 198.75, 0 32 M0 32 C0 10.67, 10.67 0, 32 0 M0 32 C0 10.67, 10.67 0, 32 0"/></g><g transform="translate(97.58620689655163 165) rotate(0 190.71665954589844 18.899999999999977)"><text direction="ltr" style="white-space: pre;" text-anchor="middle" fill="#116466" font-size="28px" font-family="Nunito, Segoe UI Emoji" y="28.112000000000002" x="190.71665954589844">3. Mnemonic ---&gt; Binary Seed</text></g><g stroke-linecap="round"><g transform="translate(571.6858576761497 10) rotate(0 325.74503471933986 1370.5)"><path fill="none" stroke-width="4" stroke="#1971c2" d="M0 0 C107.65 105.83, 593.68 178.17, 645.9 635 C698.12 1091.83, 368.73 2390, 313.3 2741 M0 0 C107.65 105.83, 593.68 178.17, 645.9 635 C698.12 1091.83, 368.73 2390, 313.3 2741"/></g><g transform="translate(571.6858576761497 10) rotate(0 325.74503471933986 1370.5)"><path fill="none" stroke-width="4" stroke="#1971c2" d="M309.59 2716.28 C310.36 2721.4, 311.13 2726.53, 313.3 2741 M309.59 2716.28 C310.74 2723.93, 311.89 2731.59, 313.3 2741"/></g><g transform="translate(571.6858576761497 10) rotate(0 325.74503471933986 1370.5)"><path fill="none" stroke-width="4" stroke="#1971c2" d="M326.35 2719.68 C323.64 2724.1, 320.94 2728.52, 313.3 2741 M326.35 2719.68 C322.31 2726.28, 318.26 2732.89, 313.3 2741"/></g></g><mask/></svg>