<svg viewBox="0 0 1286.772486772487 724.604" xmlns="http://www.w3.org/2000/svg" version="1.1" style="max-height: 500px" width="1286.772486772487" height="724.604"><metadata/><defs><style class="style-fonts">
      @font-face { font-family: Nunito; src: url(https://unpkg.com/@excalidraw/excalidraw@undefined/dist/prod/fonts/Nunito/Nunito-Regular-XRXI3I6Li01BKofiOc5wtlZ2di8HDIkhdTQ3j6zbXWjgeg-S2BZMVTH.woff2); }</style></defs><rect fill="#ffffff" height="3386" width="1280" y="0" x="0"/><g transform="translate(690 30) rotate(0 240 18.899999999999977)"><text direction="ltr" style="white-space: pre;" text-anchor="middle" fill="#116466" font-size="28px" font-family="Nunito, Segoe UI Emoji" y="28.112000000000002" x="240">User Triggers Keypair Generation</text></g><g stroke-linecap="round" mask="url(#mask-K0GnbGQE3eJTyWBkpLTZT)"><g transform="translate(890 70) rotate(0 -100 80)"><path fill="none" stroke-width="4" stroke="#116466" d="M0 0 C-33.33 26.67, -166.67 133.33, -200 160 M0 0 C-33.33 26.67, -166.67 133.33, -200 160"/></g><g transform="translate(890 70) rotate(0 -100 80)"><path fill="none" stroke-width="4" stroke="#116466" d="M-187 138.65 C-191.59 146.19, -196.19 153.74, -200 160 M-187 138.65 C-191.44 145.94, -195.87 153.23, -200 160"/></g><g transform="translate(890 70) rotate(0 -100 80)"><path fill="none" stroke-width="4" stroke="#116466" d="M-176.31 152 C-184.68 154.83, -193.05 157.65, -200 160 M-176.31 152 C-184.4 154.73, -192.49 157.46, -200 160"/></g></g><mask id="mask-K0GnbGQE3eJTyWBkpLTZT"><rect height="330" width="1190" fill="#fff" y="0" x="0"/><rect opacity="1" height="37.800000000000004" width="206.1666717529297" fill="#000" y="131.10000000000002" x="686.9166641235352"/></mask><g transform="translate(686.9166641235352 131.10000000000002) rotate(0 103.08333587646484 18.899999999999977)"><text direction="ltr" style="white-space: pre;" text-anchor="middle" fill="#116466" font-size="28px" font-family="Nunito, Segoe UI Emoji" y="28.112000000000002" x="103.08333587646484">Entropy Sources</text></g><g transform="translate(550 250) rotate(0 96.66666666666674 43)" stroke-linecap="round"><path fill="none" stroke-width="4" stroke="#116466" d="M21.5 0 C74.24 0, 126.98 0, 171.83 0 M21.5 0 C61.62 0, 101.73 0, 171.83 0 M171.83 0 C186.17 0, 193.33 7.17, 193.33 21.5 M171.83 0 C186.17 0, 193.33 7.17, 193.33 21.5 M193.33 21.5 C193.33 38.57, 193.33 55.65, 193.33 64.5 M193.33 21.5 C193.33 31.38, 193.33 41.26, 193.33 64.5 M193.33 64.5 C193.33 78.83, 186.17 86, 171.83 86 M193.33 64.5 C193.33 78.83, 186.17 86, 171.83 86 M171.83 86 C118.5 86, 65.17 86, 21.5 86 M171.83 86 C123.76 86, 75.68 86, 21.5 86 M21.5 86 C7.17 86, 0 78.83, 0 64.5 M21.5 86 C7.17 86, 0 78.83, 0 64.5 M0 64.5 C0 48.32, 0 32.14, 0 21.5 M0 64.5 C0 49.66, 0 34.82, 0 21.5 M0 21.5 C0 7.17, 7.17 0, 21.5 0 M0 21.5 C0 7.17, 7.17 0, 21.5 0"/></g><g transform="translate(558.1666666666665 255.20000000000005) rotate(0 88.5 37.80000000000001)"><text direction="ltr" style="white-space: pre;" text-anchor="middle" fill="#116466" font-size="28px" font-family="Nunito, Segoe UI Emoji" y="28.112000000000002" x="88.5">crypto.getRan</text><text direction="ltr" style="white-space: pre;" text-anchor="middle" fill="#116466" font-size="28px" font-family="Nunito, Segoe UI Emoji" y="65.912" x="88.5">domValues</text></g><g transform="translate(870 450) rotate(0 96.66666666666674 23.900000000000006)" stroke-linecap="round"><path fill="none" stroke-width="4" stroke="#116466" d="M11.95 0 C48.9 0, 85.86 0, 181.38 0 M11.95 0 C57.24 0, 102.54 0, 181.38 0 M181.38 0 C189.35 0, 193.33 3.98, 193.33 11.95 M181.38 0 C189.35 0, 193.33 3.98, 193.33 11.95 M193.33 11.95 C193.33 17.72, 193.33 23.49, 193.33 35.85 M193.33 11.95 C193.33 17.97, 193.33 23.99, 193.33 35.85 M193.33 35.85 C193.33 43.82, 189.35 47.8, 181.38 47.8 M193.33 35.85 C193.33 43.82, 189.35 47.8, 181.38 47.8 M181.38 47.8 C135.08 47.8, 88.78 47.8, 11.95 47.8 M181.38 47.8 C138.85 47.8, 96.32 47.8, 11.95 47.8 M11.95 47.8 C3.98 47.8, 0 43.82, 0 35.85 M11.95 47.8 C3.98 47.8, 0 43.82, 0 35.85 M0 35.85 C0 28.19, 0 20.52, 0 11.95 M0 35.85 C0 29.88, 0 23.91, 0 11.95 M0 11.95 C0 3.98, 3.98 0, 11.95 0 M0 11.95 C0 3.98, 3.98 0, 11.95 0"/></g><g transform="translate(903.5500017801919 455) rotate(0 63.11666488647461 18.900000000000006)"><text direction="ltr" style="white-space: pre;" text-anchor="middle" fill="#116466" font-size="28px" font-family="Nunito, Segoe UI Emoji" y="28.112000000000002" x="63.11666488647461">Open SSL</text></g><g transform="translate(330 510) rotate(0 140 62)" stroke-linecap="round"><path fill="none" stroke-width="4" stroke="#116466" d="M31 0 C100.16 0, 169.31 0, 249 0 M31 0 C85.56 0, 140.13 0, 249 0 M249 0 C269.67 0, 280 10.33, 280 31 M249 0 C269.67 0, 280 10.33, 280 31 M280 31 C280 54.58, 280 78.15, 280 93 M280 31 C280 51.61, 280 72.23, 280 93 M280 93 C280 113.67, 269.67 124, 249 124 M280 93 C280 113.67, 269.67 124, 249 124 M249 124 C169.96 124, 90.92 124, 31 124 M249 124 C185.63 124, 122.26 124, 31 124 M31 124 C10.33 124, 0 113.67, 0 93 M31 124 C10.33 124, 0 113.67, 0 93 M0 93 C0 77.5, 0 61.99, 0 31 M0 93 C0 70.56, 0 48.12, 0 31 M0 31 C0 10.33, 10.33 0, 31 0 M0 31 C0 10.33, 10.33 0, 31 0"/></g><g transform="translate(345.81666564941406 515.3) rotate(0 124.18333435058594 56.70000000000002)"><text direction="ltr" style="white-space: pre;" text-anchor="middle" fill="#116466" font-size="28px" font-family="Nunito, Segoe UI Emoji" y="28.112000000000002" x="124.18333435058594">Final Output: A BIP</text><text direction="ltr" style="white-space: pre;" text-anchor="middle" fill="#116466" font-size="28px" font-family="Nunito, Segoe UI Emoji" y="65.912" x="124.18333435058594">24-word mnemonic</text><text direction="ltr" style="white-space: pre;" text-anchor="middle" fill="#116466" font-size="28px" font-family="Nunito, Segoe UI Emoji" y="103.71200000000002" x="124.18333435058594">recovery code</text></g><g stroke-linecap="round" mask="url(#mask-vmRYqdA4PEOqkCQJOXgoB)"><g transform="translate(479.97077732320304 635) rotate(0 137.56912195226528 160.5)"><path fill="none" stroke-width="4" stroke="#e03131" d="M0 0 C45.86 53.5, 229.28 267.5, 275.14 321 M0 0 C45.86 53.5, 229.28 267.5, 275.14 321"/></g><g transform="translate(479.97077732320304 635) rotate(0 137.56912195226528 160.5)"><path fill="none" stroke-width="4" stroke="#e03131" d="M253.36 308.73 C261.82 313.49, 270.28 318.26, 275.14 321 M253.36 308.73 C259.79 312.35, 266.21 315.97, 275.14 321"/></g><g transform="translate(479.97077732320304 635) rotate(0 137.56912195226528 160.5)"><path fill="none" stroke-width="4" stroke="#e03131" d="M266.34 297.6 C269.76 306.69, 273.18 315.78, 275.14 321 M266.34 297.6 C268.94 304.5, 271.53 311.41, 275.14 321"/></g></g><mask id="mask-vmRYqdA4PEOqkCQJOXgoB"><rect height="1056" width="855.1090212277335" fill="#fff" y="0" x="0"/><rect opacity="1" height="75.60000000000001" width="255.3333282470703" fill="#000" y="757.7" x="489.87323515193293"/></mask><g transform="translate(489.87323515193293 757.7) rotate(0 127.66666412353538 37.80000000000001)"><text direction="ltr" style="white-space: pre;" text-anchor="middle" fill="#e03131" font-size="28px" font-family="Nunito, Segoe UI Emoji" y="28.112000000000002" x="127.66666412353516">PCKDF2 Conversion</text><text direction="ltr" style="white-space: pre;" text-anchor="middle" fill="#e03131" font-size="28px" font-family="Nunito, Segoe UI Emoji" y="65.912" x="127.66666412353516">Function</text></g><g transform="translate(10 10) rotate(0 630 350)" stroke-linecap="round"><path fill="none" stroke-width="4" stroke="#116466" d="M32 0 C450.52 0, 869.04 0, 1228 0 M32 0 C334.54 0, 637.07 0, 1228 0 M1228 0 C1249.33 0, 1260 10.67, 1260 32 M1228 0 C1249.33 0, 1260 10.67, 1260 32 M1260 32 C1260 286.27, 1260 540.54, 1260 668 M1260 32 C1260 247.66, 1260 463.32, 1260 668 M1260 668 C1260 689.33, 1249.33 700, 1228 700 M1260 668 C1260 689.33, 1249.33 700, 1228 700 M1228 700 C953.14 700, 678.28 700, 32 700 M1228 700 C812.98 700, 397.95 700, 32 700 M32 700 C10.67 700, 0 689.33, 0 668 M32 700 C10.67 700, 0 689.33, 0 668 M0 668 C0 439.32, 0 210.64, 0 32 M0 668 C0 513.7, 0 359.4, 0 32 M0 32 C0 10.67, 10.67 0, 32 0 M0 32 C0 10.67, 10.67 0, 32 0"/></g><g transform="translate(90 50) rotate(0 194.53334045410156 18.899999999999977)"><text direction="ltr" style="white-space: pre;" text-anchor="middle" fill="#116466" font-size="28px" font-family="Nunito, Segoe UI Emoji" y="28.112000000000002" x="194.53334045410156">2. Generating the Root Keypair</text></g><g stroke-linecap="round" mask="url(#mask-QKKlinEsl5jHr_xt6zFrr)"><g transform="translate(750 310) rotate(0 100 60)"><path fill="none" stroke-width="4" stroke="#116466" d="M0 0 C33.33 20, 166.67 100, 200 120 M0 0 C33.33 20, 166.67 100, 200 120"/></g><g transform="translate(750 310) rotate(0 100 60)"><path fill="none" stroke-width="4" stroke="#116466" d="M175.46 115.25 C182.78 116.66, 190.1 118.08, 200 120 M175.46 115.25 C183.97 116.9, 192.49 118.54, 200 120"/></g><g transform="translate(750 310) rotate(0 100 60)"><path fill="none" stroke-width="4" stroke="#116466" d="M184.25 100.58 C188.95 106.37, 193.65 112.16, 200 120 M184.25 100.58 C189.72 107.32, 195.18 114.06, 200 120"/></g></g><mask id="mask-QKKlinEsl5jHr_xt6zFrr"><rect height="530" width="1050" fill="#fff" y="0" x="0"/><rect opacity="1" height="37.800000000000004" width="206.1666717529297" fill="#000" y="351.1" x="746.9166641235352"/></mask><g transform="translate(746.9166641235352 351.1) rotate(0 103.08333587646484 18.899999999999977)"><text direction="ltr" style="white-space: pre;" text-anchor="middle" fill="#116466" font-size="28px" font-family="Nunito, Segoe UI Emoji" y="28.112000000000002" x="103.08333587646484">Entropy Sources</text></g><g stroke-linecap="round"><g transform="translate(870 490) rotate(0 -120 48.990863855126804)"><path fill="none" stroke-width="4" stroke="#116466" d="M0 0 C-40 16.33, -200 81.65, -240 97.98 M0 0 C-40 16.33, -200 81.65, -240 97.98"/></g><g transform="translate(870 490) rotate(0 -120 48.990863855126804)"><path fill="none" stroke-width="4" stroke="#116466" d="M-221.48 81.19 C-227.18 86.36, -232.89 91.53, -240 97.98 M-221.48 81.19 C-228.37 87.44, -235.26 93.69, -240 97.98"/></g><g transform="translate(870 490) rotate(0 -120 48.990863855126804)"><path fill="none" stroke-width="4" stroke="#116466" d="M-215.02 97.02 C-222.71 97.32, -230.4 97.61, -240 97.98 M-215.02 97.02 C-224.31 97.38, -233.61 97.74, -240 97.98"/></g></g><mask/><g stroke-linecap="round"><g transform="translate(564.0996507795976 635) rotate(0 325.74503471933986 1370.5)"><path fill="none" stroke-width="4" stroke="#1971c2" d="M0 0 C107.65 105.83, 593.68 178.17, 645.9 635 C698.12 1091.83, 368.73 2390, 313.3 2741 M0 0 C107.65 105.83, 593.68 178.17, 645.9 635 C698.12 1091.83, 368.73 2390, 313.3 2741"/></g><g transform="translate(564.0996507795976 635) rotate(0 325.74503471933986 1370.5)"><path fill="none" stroke-width="4" stroke="#1971c2" d="M309.59 2716.28 C310.48 2722.24, 311.38 2728.21, 313.3 2741 M309.59 2716.28 C310.52 2722.5, 311.46 2728.73, 313.3 2741"/></g><g transform="translate(564.0996507795976 635) rotate(0 325.74503471933986 1370.5)"><path fill="none" stroke-width="4" stroke="#1971c2" d="M326.35 2719.68 C323.2 2724.82, 320.05 2729.97, 313.3 2741 M326.35 2719.68 C323.06 2725.05, 319.77 2730.42, 313.3 2741"/></g></g><mask/></svg>