<svg viewBox="3.3160621761658033 453.79530505754644 1276.6839378238342 715.4728897257665" xmlns="http://www.w3.org/2000/svg" version="1.1" style="max-height: 500px" width="1276.6839378238342" height="715.4728897257665"><metadata/><defs><style class="style-fonts">
      @font-face { font-family: Nunito; src: url(https://unpkg.com/@excalidraw/excalidraw@undefined/dist/prod/fonts/Nunito/Nunito-Regular-XRXI3I6Li01BKofiOc5wtlZ2di8HDIkhdTQ3j6zbXWjgeg-S2BZMVTH.woff2); }</style></defs><rect fill="#ffffff" height="1656.1872447355709" width="1280" y="0" x="0"/><g stroke-linecap="round"><g transform="translate(889 25.236384411684185) rotate(0 -201.88123577143597 280.47543016194334)"><path fill="none" stroke-width="4" stroke="#ffd43b" d="M0 0 C-39.83 25.83, -171.71 61.46, -239 154.95 C-306.29 248.44, -376.3 493.28, -403.76 560.95 M0 0 C-39.83 25.83, -171.71 61.46, -239 154.95 C-306.29 248.44, -376.3 493.28, -403.76 560.95"/></g><g transform="translate(889 25.236384411684185) rotate(0 -201.88123577143597 280.47543016194334)"><path fill="none" stroke-width="4" stroke="#ffd43b" d="M-404.07 535.95 C-403.99 542.02, -403.92 548.08, -403.76 560.95 M-404.07 535.95 C-403.97 543.93, -403.87 551.9, -403.76 560.95"/></g><g transform="translate(889 25.236384411684185) rotate(0 -201.88123577143597 280.47543016194334)"><path fill="none" stroke-width="4" stroke="#ffd43b" d="M-387.93 541.61 C-391.77 546.3, -395.61 550.99, -403.76 560.95 M-387.93 541.61 C-392.98 547.78, -398.03 553.95, -403.76 560.95"/></g></g><mask/><g stroke-linecap="round"><g transform="translate(889 10) rotate(0 -301.45589451255364 814.5936223677854)"><path fill="none" stroke-width="4" stroke="#ffd43b" d="M0 0 C-78.01 37.2, -367.55 -48.34, -468.04 223.19 C-568.52 494.72, -580.43 1394.85, -602.91 1629.19 M0 0 C-78.01 37.2, -367.55 -48.34, -468.04 223.19 C-568.52 494.72, -580.43 1394.85, -602.91 1629.19"/></g><g transform="translate(889 10) rotate(0 -301.45589451255364 814.5936223677854)"><path fill="none" stroke-width="4" stroke="#ffd43b" d="M-610.13 1605.25 C-607.86 1612.76, -605.6 1620.27, -602.91 1629.19 M-610.13 1605.25 C-607.97 1612.4, -605.82 1619.54, -602.91 1629.19"/></g><g transform="translate(889 10) rotate(0 -301.45589451255364 814.5936223677854)"><path fill="none" stroke-width="4" stroke="#ffd43b" d="M-593.05 1606.21 C-596.15 1613.42, -599.24 1620.63, -602.91 1629.19 M-593.05 1606.21 C-596 1613.07, -598.94 1619.93, -602.91 1629.19"/></g></g><mask/><g stroke-linecap="round"><g transform="translate(879.3745590168983 334.18724473557086) rotate(0 -105.30825299937624 656)"><path fill="none" stroke-width="4" stroke="#2f9e44" d="M0 0 C15.1 81, 142.91 267.33, 90.63 486 C38.34 704.67, -246.34 1174.33, -313.73 1312 M0 0 C15.1 81, 142.91 267.33, 90.63 486 C38.34 704.67, -246.34 1174.33, -313.73 1312"/></g><g transform="translate(879.3745590168983 334.18724473557086) rotate(0 -105.30825299937624 656)"><path fill="none" stroke-width="4" stroke="#2f9e44" d="M-310.06 1287.27 C-311.07 1294.05, -312.08 1300.83, -313.73 1312 M-310.06 1287.27 C-311 1293.6, -311.94 1299.93, -313.73 1312"/></g><g transform="translate(879.3745590168983 334.18724473557086) rotate(0 -105.30825299937624 656)"><path fill="none" stroke-width="4" stroke="#2f9e44" d="M-295.02 1295.42 C-300.16 1299.97, -305.29 1304.51, -313.73 1312 M-295.02 1295.42 C-299.81 1299.66, -304.6 1303.9, -313.73 1312"/></g></g><mask/><g transform="translate(10 460.18724473557086) rotate(0 630 350)" stroke-linecap="round"><path fill="none" stroke-width="4" stroke="#116466" d="M32 0 C424.21 0, 816.42 0, 1228 0 M32 0 C311.76 0, 591.51 0, 1228 0 M1228 0 C1249.33 0, 1260 10.67, 1260 32 M1228 0 C1249.33 0, 1260 10.67, 1260 32 M1260 32 C1260 276.81, 1260 521.62, 1260 668 M1260 32 C1260 283.89, 1260 535.78, 1260 668 M1260 668 C1260 689.33, 1249.33 700, 1228 700 M1260 668 C1260 689.33, 1249.33 700, 1228 700 M1228 700 C850.14 700, 472.28 700, 32 700 M1228 700 C939.69 700, 651.38 700, 32 700 M32 700 C10.67 700, 0 689.33, 0 668 M32 700 C10.67 700, 0 689.33, 0 668 M0 668 C0 484.81, 0 301.62, 0 32 M0 668 C0 505.51, 0 343.02, 0 32 M0 32 C0 10.67, 10.67 0, 32 0 M0 32 C0 10.67, 10.67 0, 32 0"/></g><g transform="translate(410 600.1872447355709) rotate(0 80 30)" stroke-linecap="round"><path fill="none" stroke-width="2" stroke="#ffec99" d="M3.99 3.47 C3.99 3.47, 3.99 3.47, 3.99 3.47 M3.99 3.47 C3.99 3.47, 3.99 3.47, 3.99 3.47 M0.98 31.33 C10.38 20.51, 19.79 9.69, 27.88 0.38 M0.98 31.33 C7.01 24.39, 13.03 17.46, 27.88 0.38 M2.56 53.9 C19.73 34.15, 36.89 14.4, 49.14 0.31 M2.56 53.9 C20.64 33.1, 38.72 12.29, 49.14 0.31 M17.91 60.62 C30.45 46.2, 42.99 31.77, 69.74 1 M17.91 60.62 C32.54 43.8, 47.16 26.97, 69.74 1 M39.17 60.55 C57.96 38.94, 76.75 17.32, 91 0.93 M39.17 60.55 C53.3 44.3, 67.42 28.05, 91 0.93 M60.43 60.48 C77.42 40.94, 94.41 21.4, 112.26 0.86 M60.43 60.48 C75.96 42.62, 91.48 24.76, 112.26 0.86 M81.69 60.41 C98.97 40.54, 116.24 20.67, 133.52 0.79 M81.69 60.41 C101.56 37.56, 121.42 14.71, 133.52 0.79 M102.95 60.35 C121.48 39.04, 140 17.73, 153.47 2.23 M102.95 60.35 C119.63 41.16, 136.3 21.98, 153.47 2.23 M124.21 60.28 C131.34 52.08, 138.47 43.88, 159.64 19.52 M124.21 60.28 C132.66 50.56, 141.11 40.84, 159.64 19.52 M145.47 60.21 C151.1 53.74, 156.72 47.27, 159.91 43.6 M145.47 60.21 C148.44 56.79, 151.42 53.37, 159.91 43.6"/><path fill="none" stroke-width="4" stroke="#116466" d="M15 0 C48.5 0, 82 0, 145 0 M15 0 C52.11 0, 89.22 0, 145 0 M145 0 C155 0, 160 5, 160 15 M145 0 C155 0, 160 5, 160 15 M160 15 C160 21.12, 160 27.23, 160 45 M160 15 C160 26.97, 160 38.94, 160 45 M160 45 C160 55, 155 60, 145 60 M160 45 C160 55, 155 60, 145 60 M145 60 C115.62 60, 86.23 60, 15 60 M145 60 C100.57 60, 56.13 60, 15 60 M15 60 C5 60, 0 55, 0 45 M15 60 C5 60, 0 55, 0 45 M0 45 C0 37.26, 0 29.53, 0 15 M0 45 C0 35.46, 0 25.91, 0 15 M0 15 C0 5, 5 0, 15 0 M0 15 C0 5, 5 0, 15 0"/></g><g transform="translate(418.8000030517578 611.2872447355709) rotate(0 71.19999694824219 18.900000000000006)"><text direction="ltr" style="white-space: pre;" text-anchor="middle" fill="#116466" font-size="28px" font-family="Nunito, Segoe UI Emoji" y="28.112000000000002" x="71.19999694824219">Private Key</text></g><g transform="translate(730 600.1872447355709) rotate(0 110 43)" stroke-linecap="round"><path fill="none" stroke-width="4" stroke="#116466" d="M21.5 0 C87.21 0, 152.92 0, 198.5 0 M21.5 0 C72.69 0, 123.87 0, 198.5 0 M198.5 0 C212.83 0, 220 7.17, 220 21.5 M198.5 0 C212.83 0, 220 7.17, 220 21.5 M220 21.5 C220 33.1, 220 44.71, 220 64.5 M220 21.5 C220 34.98, 220 48.45, 220 64.5 M220 64.5 C220 78.83, 212.83 86, 198.5 86 M220 64.5 C220 78.83, 212.83 86, 198.5 86 M198.5 86 C149.11 86, 99.71 86, 21.5 86 M198.5 86 C147.47 86, 96.44 86, 21.5 86 M21.5 86 C7.17 86, 0 78.83, 0 64.5 M21.5 86 C7.17 86, 0 78.83, 0 64.5 M0 64.5 C0 52.81, 0 41.11, 0 21.5 M0 64.5 C0 49.55, 0 34.61, 0 21.5 M0 21.5 C0 7.17, 7.17 0, 21.5 0 M0 21.5 C0 7.17, 7.17 0, 21.5 0"/></g><g transform="translate(740.716667175293 605.3872447355709) rotate(0 99.28333282470703 37.80000000000001)"><text direction="ltr" style="white-space: pre;" text-anchor="middle" fill="#116466" font-size="28px" font-family="Nunito, Segoe UI Emoji" y="28.112000000000002" x="99.28333282470703">Public Key from</text><text direction="ltr" style="white-space: pre;" text-anchor="middle" fill="#116466" font-size="28px" font-family="Nunito, Segoe UI Emoji" y="65.912" x="99.28333282470703">another node</text></g><g stroke-linecap="round"><g transform="translate(571 640.1872447355709) rotate(0 79 0)"><path fill="none" stroke-width="4" stroke="#116466" d="M0 0 C26.33 0, 131.67 0, 158 0 M0 0 C26.33 0, 131.67 0, 158 0"/></g></g><mask/><g stroke-linecap="round" mask="url(#mask-Zcoa79z5qxCxGcXRM8LUt)"><g transform="translate(650 640.1872447355709) rotate(0 -30 110)"><path fill="none" stroke-width="4" stroke="#116466" d="M0 0 C-10 36.67, -50 183.33, -60 220 M0 0 C-10 36.67, -50 183.33, -60 220"/></g><g transform="translate(650 640.1872447355709) rotate(0 -30 110)"><path fill="none" stroke-width="4" stroke="#116466" d="M-62.07 195.09 C-61.58 201.02, -61.08 206.95, -60 220 M-62.07 195.09 C-61.64 200.26, -61.21 205.43, -60 220"/></g><g transform="translate(650 640.1872447355709) rotate(0 -30 110)"><path fill="none" stroke-width="4" stroke="#116466" d="M-45.57 199.59 C-49.01 204.45, -52.44 209.31, -60 220 M-45.57 199.59 C-48.56 203.82, -51.56 208.06, -60 220"/></g></g><mask id="mask-Zcoa79z5qxCxGcXRM8LUt"><rect height="960.1872447355709" width="810" fill="#fff" y="0" x="0"/><rect opacity="1" height="37.800000000000004" width="143.36666870117188" fill="#000" y="731.2872447355709" x="548.3166656494141"/></mask><g transform="translate(548.3166656494141 731.2872447355709) rotate(0 71.68333435058594 18.900000000000006)"><text direction="ltr" style="white-space: pre;" text-anchor="middle" fill="#116466" font-size="28px" font-family="Nunito, Segoe UI Emoji" y="28.112000000000002" x="71.68333435058594">ECDH Step</text></g><g transform="translate(510 880.1872447355709) rotate(0 80 43)" stroke-linecap="round"><path fill="none" stroke-width="4" stroke="#116466" d="M21.5 0 C51.87 0, 82.23 0, 138.5 0 M21.5 0 C52.8 0, 84.09 0, 138.5 0 M138.5 0 C152.83 0, 160 7.17, 160 21.5 M138.5 0 C152.83 0, 160 7.17, 160 21.5 M160 21.5 C160 36.12, 160 50.73, 160 64.5 M160 21.5 C160 32.96, 160 44.42, 160 64.5 M160 64.5 C160 78.83, 152.83 86, 138.5 86 M160 64.5 C160 78.83, 152.83 86, 138.5 86 M138.5 86 C97.03 86, 55.55 86, 21.5 86 M138.5 86 C96.1 86, 53.7 86, 21.5 86 M21.5 86 C7.17 86, 0 78.83, 0 64.5 M21.5 86 C7.17 86, 0 78.83, 0 64.5 M0 64.5 C0 50.39, 0 36.28, 0 21.5 M0 64.5 C0 53.37, 0 42.23, 0 21.5 M0 21.5 C0 7.17, 7.17 0, 21.5 0 M0 21.5 C0 7.17, 7.17 0, 21.5 0"/></g><g transform="translate(545.1666679382324 885.3872447355709) rotate(0 44.83333206176758 37.80000000000001)"><text direction="ltr" style="white-space: pre;" text-anchor="middle" fill="#116466" font-size="28px" font-family="Nunito, Segoe UI Emoji" y="28.112000000000002" x="44.83333206176758">Shared</text><text direction="ltr" style="white-space: pre;" text-anchor="middle" fill="#116466" font-size="28px" font-family="Nunito, Segoe UI Emoji" y="65.912" x="44.83333206176758">Secret</text></g><g stroke-linecap="round" mask="url(#mask-F1osLRjWbtyLLCThqpokT)"><g transform="translate(590 980.1872447355709) rotate(0 -50 150)"><path fill="none" stroke-width="4" stroke="#9775fa" d="M0 0 C-16.67 50, -83.33 250, -100 300 M0 0 C-16.67 50, -83.33 250, -100 300"/></g><g transform="translate(590 980.1872447355709) rotate(0 -50 150)"><path fill="none" stroke-width="4" stroke="#9775fa" d="M-100.68 275.01 C-100.46 283, -100.25 290.98, -100 300 M-100.68 275.01 C-100.45 283.44, -100.22 291.86, -100 300"/></g><g transform="translate(590 980.1872447355709) rotate(0 -50 150)"><path fill="none" stroke-width="4" stroke="#9775fa" d="M-84.46 280.42 C-89.43 286.68, -94.39 292.93, -100 300 M-84.46 280.42 C-89.7 287.02, -94.94 293.62, -100 300"/></g></g><mask id="mask-F1osLRjWbtyLLCThqpokT"><rect height="1380.1872447355709" width="790" fill="#fff" y="0" x="0"/><rect opacity="1" height="37.800000000000004" width="169.89999389648438" fill="#000" y="1111.2872447355708" x="455.0500030517578"/></mask><g transform="translate(455.0500030517578 1111.2872447355708) rotate(0 84.94999694824219 18.899999999999977)"><text direction="ltr" style="white-space: pre;" text-anchor="middle" fill="#9775fa" font-size="28px" font-family="Nunito, Segoe UI Emoji" y="28.112000000000002" x="84.94999694824219">KDF Function</text></g><g transform="translate(70 500.18724473557086) rotate(0 116.43333435058594 18.900000000000002)"><text direction="ltr" style="white-space: pre;" text-anchor="middle" fill="#116466" font-size="28px" font-family="Nunito, Segoe UI Emoji" y="28.112000000000002" x="116.43333435058594">5. DEK Generation</text></g></svg>