<svg version="1.1" xmlns="http://www.w3.org/2000/svg" viewBox="0 0 1260 300" width="1260" height="300"><!-- svg-source:excalidraw --><metadata></metadata><defs><style class="style-fonts">
      @font-face { font-family: Nunito; src: url(https://unpkg.com/@excalidraw/excalidraw@undefined/dist/prod/fonts/Nunito/Nunito-Regular-XRXI3I6Li01BKofiOc5wtlZ2di8HDIkhdTQ3j6zbXWjgeg-S2BZMVTH.woff2); }</style></defs><rect x="0" y="0" width="1260" height="300" fill="#ffffff"></rect><g stroke-linecap="round" transform="translate(690 50) rotate(0 100 30)"><path d="M15 0 C59.22 0, 103.43 0, 185 0 M15 0 C53.42 0, 91.84 0, 185 0 M185 0 C195 0, 200 5, 200 15 M185 0 C195 0, 200 5, 200 15 M200 15 C200 24.95, 200 34.91, 200 45 M200 15 C200 22.18, 200 29.36, 200 45 M200 45 C200 55, 195 60, 185 60 M200 45 C200 55, 195 60, 185 60 M185 60 C147.63 60, 110.26 60, 15 60 M185 60 C138.87 60, 92.73 60, 15 60 M15 60 C5 60, 0 55, 0 45 M15 60 C5 60, 0 55, 0 45 M0 45 C0 34.12, 0 23.24, 0 15 M0 45 C0 38.52, 0 32.04, 0 15 M0 15 C0 5, 5 0, 15 0 M0 15 C0 5, 5 0, 15 0" stroke="#116466" stroke-width="4" fill="none"></path></g><g transform="translate(690 50) rotate(0 100 18.900000000000006)"><text x="100" y="28.112000000000002" font-family="Nunito, Segoe UI Emoji" font-size="28px" fill="#116466" text-anchor="middle" style="white-space: pre;" direction="ltr" dominant-baseline="alphabetic">KEM</text></g><g stroke-linecap="round" transform="translate(990 50) rotate(0 100 30)"><path d="M15 0 C82.99 0, 150.98 0, 185 0 M15 0 C72.45 0, 129.9 0, 185 0 M185 0 C195 0, 200 5, 200 15 M185 0 C195 0, 200 5, 200 15 M200 15 C200 21.68, 200 28.36, 200 45 M200 15 C200 21.88, 200 28.76, 200 45 M200 45 C200 55, 195 60, 185 60 M200 45 C200 55, 195 60, 185 60 M185 60 C146.8 60, 108.61 60, 15 60 M185 60 C132.45 60, 79.91 60, 15 60 M15 60 C5 60, 0 55, 0 45 M15 60 C5 60, 0 55, 0 45 M0 45 C0 36.98, 0 28.95, 0 15 M0 45 C0 37.3, 0 29.61, 0 15 M0 15 C0 5, 5 0, 15 0 M0 15 C0 5, 5 0, 15 0" stroke="#116466" stroke-width="4" fill="none"></path></g><g transform="translate(990 50) rotate(0 100 18.900000000000006)"><text x="100" y="28.112000000000002" font-family="Nunito, Segoe UI Emoji" font-size="28px" fill="#116466" text-anchor="middle" style="white-space: pre;" direction="ltr" dominant-baseline="alphabetic">DEM</text></g><g stroke-linecap="round" transform="translate(830 190) rotate(0 100 30)"><path d="M15 0 C58.7 0, 102.39 0, 185 0 M15 0 C58.37 0, 101.74 0, 185 0 M185 0 C195 0, 200 5, 200 15 M185 0 C195 0, 200 5, 200 15 M200 15 C200 25.27, 200 35.53, 200 45 M200 15 C200 23.95, 200 32.89, 200 45 M200 45 C200 55, 195 60, 185 60 M200 45 C200 55, 195 60, 185 60 M185 60 C132.52 60, 80.04 60, 15 60 M185 60 C123.22 60, 61.43 60, 15 60 M15 60 C5 60, 0 55, 0 45 M15 60 C5 60, 0 55, 0 45 M0 45 C0 38.77, 0 32.53, 0 15 M0 45 C0 34.31, 0 23.63, 0 15 M0 15 C0 5, 5 0, 15 0 M0 15 C0 5, 5 0, 15 0" stroke="#116466" stroke-width="4" fill="none"></path></g><g transform="translate(830 190) rotate(0 100 18.900000000000006)"><text x="100" y="28.112000000000002" font-family="Nunito, Segoe UI Emoji" font-size="28px" fill="#116466" text-anchor="middle" style="white-space: pre;" direction="ltr" dominant-baseline="alphabetic">RKG</text></g><g stroke-linecap="round" transform="translate(10 10) rotate(0 620 140)"><path d="M32 0 C400.54 0, 769.08 0, 1208 0 M32 0 C370.19 0, 708.38 0, 1208 0 M1208 0 C1229.33 0, 1240 10.67, 1240 32 M1208 0 C1229.33 0, 1240 10.67, 1240 32 M1240 32 C1240 104.08, 1240 176.15, 1240 248 M1240 32 C1240 113.37, 1240 194.74, 1240 248 M1240 248 C1240 269.33, 1229.33 280, 1208 280 M1240 248 C1240 269.33, 1229.33 280, 1208 280 M1208 280 C803.68 280, 399.35 280, 32 280 M1208 280 C959.38 280, 710.76 280, 32 280 M32 280 C10.67 280, 0 269.33, 0 248 M32 280 C10.67 280, 0 269.33, 0 248 M0 248 C0 177.66, 0 107.31, 0 32 M0 248 C0 199.2, 0 150.4, 0 32 M0 32 C0 10.67, 10.67 0, 32 0 M0 32 C0 10.67, 10.67 0, 32 0" stroke="#116466" stroke-width="4" fill="none"></path></g><g transform="translate(91.19999694824219 55.39999999999998) rotate(0 214.18333435058594 18.900000000000006)"><text x="214.18333435058594" y="28.112000000000002" font-family="Nunito, Segoe UI Emoji" font-size="28px" fill="#116466" text-anchor="middle" style="white-space: pre;" direction="ltr" dominant-baseline="alphabetic">1. Hybrid Cryptosystem Overview</text></g></svg>