<svg viewBox="0 806.212 1285.5172413793105 728.904" xmlns="http://www.w3.org/2000/svg" version="1.1" style="max-height: 500px" width="1285.5172413793105" height="728.904"><metadata/><defs><style class="style-fonts">
      @font-face { font-family: Nunito; src: url(https://unpkg.com/@excalidraw/excalidraw@undefined/dist/prod/fonts/Nunito/Nunito-Regular-XRXI3I6Li01BKofiOc5wtlZ2di8HDIkhdTQ3j6zbXWjgeg-S2BZMVTH.woff2); }</style></defs><rect fill="#ffffff" height="2761" width="1280" y="0" x="0"/><g stroke-linecap="round" mask="url(#mask-sRlLuYqbiuwV50gIGafoc)"><g transform="translate(485.75 745) rotate(0 254.52215571001943 173)"><path fill="none" stroke-width="4" stroke="#f08c00" d="M0 0 C57.37 25.5, 259.41 95.33, 344.25 153 C429.09 210.67, 481.58 313.83, 509.04 346 M0 0 C57.37 25.5, 259.41 95.33, 344.25 153 C429.09 210.67, 481.58 313.83, 509.04 346"/></g><g transform="translate(485.75 745) rotate(0 254.52215571001943 173)"><path fill="none" stroke-width="4" stroke="#f08c00" d="M488.53 331.72 C495.6 336.64, 502.66 341.56, 509.04 346 M488.53 331.72 C496.04 336.94, 503.54 342.17, 509.04 346"/></g><g transform="translate(485.75 745) rotate(0 254.52215571001943 173)"><path fill="none" stroke-width="4" stroke="#f08c00" d="M502.51 321.87 C504.76 330.18, 507.01 338.5, 509.04 346 M502.51 321.87 C504.9 330.7, 507.29 339.53, 509.04 346"/></g></g><mask id="mask-sRlLuYqbiuwV50gIGafoc"><rect height="1191" width="1094.7943114200389" fill="#fff" y="0" x="0"/><rect opacity="1" height="75.60000000000001" width="320.76666259765625" fill="#000" y="860.2" x="669.6166687011719"/></mask><g transform="translate(669.6166687011719 860.2) rotate(0 70.65548700884756 57.80000000000001)"><text direction="ltr" style="white-space: pre;" text-anchor="middle" fill="#f08c00" font-size="28px" font-family="Nunito, Segoe UI Emoji" y="28.112000000000002" x="160.38333129882812">Scalar Multiplication step</text><text direction="ltr" style="white-space: pre;" text-anchor="middle" fill="#f08c00" font-size="28px" font-family="Nunito, Segoe UI Emoji" y="65.912" x="160.38333129882812">using Ed25519 Curve</text></g><g stroke-linecap="round"><g transform="translate(889 1130.049139676113) rotate(0 -201.88123577143597 280.47543016194345)"><path fill="none" stroke-width="4" stroke="#ffd43b" d="M0 0 C-39.83 25.83, -171.71 61.46, -239 154.95 C-306.29 248.44, -376.3 493.28, -403.76 560.95 M0 0 C-39.83 25.83, -171.71 61.46, -239 154.95 C-306.29 248.44, -376.3 493.28, -403.76 560.95"/></g><g transform="translate(889 1130.049139676113) rotate(0 -201.88123577143597 280.47543016194345)"><path fill="none" stroke-width="4" stroke="#ffd43b" d="M-404.07 535.95 C-403.99 542.2, -403.91 548.45, -403.76 560.95 M-404.07 535.95 C-403.95 545.34, -403.84 554.73, -403.76 560.95"/></g><g transform="translate(889 1130.049139676113) rotate(0 -201.88123577143597 280.47543016194345)"><path fill="none" stroke-width="4" stroke="#ffd43b" d="M-387.93 541.61 C-391.89 546.44, -395.84 551.28, -403.76 560.95 M-387.93 541.61 C-393.87 548.87, -399.82 556.14, -403.76 560.95"/></g></g><mask/><g stroke-linecap="round"><g transform="translate(889 1114.8127552644287) rotate(0 -301.45589451255364 814.5936223677857)"><path fill="none" stroke-width="4" stroke="#ffd43b" d="M0 0 C-78.01 37.2, -367.55 -48.34, -468.04 223.19 C-568.52 494.72, -580.43 1394.85, -602.91 1629.19 M0 0 C-78.01 37.2, -367.55 -48.34, -468.04 223.19 C-568.52 494.72, -580.43 1394.85, -602.91 1629.19"/></g><g transform="translate(889 1114.8127552644287) rotate(0 -301.45589451255364 814.5936223677857)"><path fill="none" stroke-width="4" stroke="#ffd43b" d="M-610.13 1605.25 C-608.15 1611.8, -606.18 1618.35, -602.91 1629.19 M-610.13 1605.25 C-607.97 1612.41, -605.81 1619.56, -602.91 1629.19"/></g><g transform="translate(889 1114.8127552644287) rotate(0 -301.45589451255364 814.5936223677857)"><path fill="none" stroke-width="4" stroke="#ffd43b" d="M-593.05 1606.21 C-595.75 1612.5, -598.45 1618.78, -602.91 1629.19 M-593.05 1606.21 C-596 1613.08, -598.95 1619.95, -602.91 1629.19"/></g></g><mask/><g transform="translate(790 1378) rotate(0 80 30)" stroke-linecap="round"><path fill="none" stroke-width="4" stroke="#116466" d="M15 0 C62.1 0, 109.2 0, 145 0 M15 0 C41.57 0, 68.14 0, 145 0 M145 0 C155 0, 160 5, 160 15 M145 0 C155 0, 160 5, 160 15 M160 15 C160 21.15, 160 27.3, 160 45 M160 15 C160 21.96, 160 28.91, 160 45 M160 45 C160 55, 155 60, 145 60 M160 45 C160 55, 155 60, 145 60 M145 60 C99.84 60, 54.68 60, 15 60 M145 60 C114.76 60, 84.52 60, 15 60 M15 60 C5 60, 0 55, 0 45 M15 60 C5 60, 0 55, 0 45 M0 45 C0 34.64, 0 24.28, 0 15 M0 45 C0 35.02, 0 25.05, 0 15 M0 15 C0 5, 5 0, 15 0 M0 15 C0 5, 5 0, 15 0"/></g><g transform="translate(804.033332824707 1389.1) rotate(0 65.96666717529297 18.89999999999999)"><text direction="ltr" style="white-space: pre;" text-anchor="middle" fill="#116466" font-size="28px" font-family="Nunito, Segoe UI Emoji" y="28.112000000000002" x="65.96666717529297">Public Key</text></g><g transform="translate(890 1098) rotate(0 80 30)" stroke-linecap="round"><path fill="none" stroke-width="2" stroke="#ffa94d" d="M3.99 3.47 C3.99 3.47, 3.99 3.47, 3.99 3.47 M3.99 3.47 C3.99 3.47, 3.99 3.47, 3.99 3.47 M0.98 31.33 C11.37 19.37, 21.77 7.41, 27.88 0.38 M0.98 31.33 C11.41 19.33, 21.84 7.32, 27.88 0.38 M2.56 53.9 C18.23 35.87, 33.89 17.85, 49.14 0.31 M2.56 53.9 C17.45 36.76, 32.35 19.63, 49.14 0.31 M17.91 60.62 C37.83 37.7, 57.76 14.79, 69.74 1 M17.91 60.62 C30.66 45.95, 43.42 31.28, 69.74 1 M39.17 60.55 C53.46 44.12, 67.75 27.68, 91 0.93 M39.17 60.55 C56.97 40.08, 74.77 19.6, 91 0.93 M60.43 60.48 C72.61 46.48, 84.78 32.48, 112.26 0.86 M60.43 60.48 C75.33 43.35, 90.22 26.21, 112.26 0.86 M81.69 60.41 C100.35 38.95, 119.01 17.49, 133.52 0.79 M81.69 60.41 C100.25 39.06, 118.82 17.71, 133.52 0.79 M102.95 60.35 C113.86 47.8, 124.77 35.25, 153.47 2.23 M102.95 60.35 C120.49 40.18, 138.02 20.01, 153.47 2.23 M124.21 60.28 C132.31 50.97, 140.4 41.66, 159.64 19.52 M124.21 60.28 C133.53 49.56, 142.85 38.84, 159.64 19.52 M145.47 60.21 C149.48 55.6, 153.49 50.99, 159.91 43.6 M145.47 60.21 C148.92 56.25, 152.36 52.29, 159.91 43.6"/><path fill="none" stroke-width="4" stroke="#116466" d="M15 0 C44.63 0, 74.27 0, 145 0 M15 0 C53.86 0, 92.72 0, 145 0 M145 0 C155 0, 160 5, 160 15 M145 0 C155 0, 160 5, 160 15 M160 15 C160 22.88, 160 30.75, 160 45 M160 15 C160 25.44, 160 35.88, 160 45 M160 45 C160 55, 155 60, 145 60 M160 45 C160 55, 155 60, 145 60 M145 60 C102.43 60, 59.86 60, 15 60 M145 60 C111.42 60, 77.85 60, 15 60 M15 60 C5 60, 0 55, 0 45 M15 60 C5 60, 0 55, 0 45 M0 45 C0 36.21, 0 27.41, 0 15 M0 45 C0 35.7, 0 26.41, 0 15 M0 15 C0 5, 5 0, 15 0 M0 15 C0 5, 5 0, 15 0"/></g><g transform="translate(898.8000030517578 1109.1) rotate(0 71.19999694824219 18.900000000000002)"><text direction="ltr" style="white-space: pre;" text-anchor="middle" fill="#116466" font-size="28px" font-family="Nunito, Segoe UI Emoji" y="28.112000000000002" x="71.19999694824219">Private Key</text></g><g stroke-linecap="round" mask="url(#mask-tYxXGLEo7tlQ3cK8Gj1pu)"><g transform="translate(968.0802615933417 1159) rotate(0 -49.04013079667061 99.5)"><path fill="none" stroke-width="4" stroke="#116466" d="M0 0 C-16.35 33.17, -81.73 165.83, -98.08 199 M0 0 C-16.35 33.17, -81.73 165.83, -98.08 199"/></g><g transform="translate(968.0802615933417 1159) rotate(0 -49.04013079667061 99.5)"><path fill="none" stroke-width="4" stroke="#116466" d="M-95.36 174.15 C-96.08 180.74, -96.81 187.34, -98.08 199 M-95.36 174.15 C-96.13 181.2, -96.91 188.25, -98.08 199"/></g><g transform="translate(968.0802615933417 1159) rotate(0 -49.04013079667061 99.5)"><path fill="none" stroke-width="4" stroke="#116466" d="M-80.03 181.71 C-84.82 186.3, -89.61 190.89, -98.08 199 M-80.03 181.71 C-85.15 186.61, -90.27 191.52, -98.08 199"/></g></g><mask id="mask-tYxXGLEo7tlQ3cK8Gj1pu"><rect height="1458" width="1166.1605231866831" fill="#fff" y="0" x="0"/><rect opacity="1" height="113.4" width="258.76666259765625" fill="#000" y="1201.8" x="789.6567994978432"/></mask><g transform="translate(789.6567994978432 1201.8) rotate(0 129.3833312988279 56.7)"><text direction="ltr" style="white-space: pre;" text-anchor="middle" fill="#116466" font-size="28px" font-family="Nunito, Segoe UI Emoji" y="28.112000000000002" x="129.38333129882812">Scalar Multiplication</text><text direction="ltr" style="white-space: pre;" text-anchor="middle" fill="#116466" font-size="28px" font-family="Nunito, Segoe UI Emoji" y="65.912" x="129.38333129882812">step using Ed25519</text><text direction="ltr" style="white-space: pre;" text-anchor="middle" fill="#116466" font-size="28px" font-family="Nunito, Segoe UI Emoji" y="103.71200000000002" x="129.38333129882812">Curve</text></g><g transform="translate(90 858) rotate(0 161.01666259765625 18.900000000000006)"><text direction="ltr" style="white-space: pre;" text-anchor="middle" fill="#116466" font-size="28px" font-family="Nunito, Segoe UI Emoji" y="28.112000000000002" x="161.01666259765625">4. Generating the Keypair</text></g><g transform="translate(10 818) rotate(0 630 350)" stroke-linecap="round"><path fill="none" stroke-width="4" stroke="#116466" d="M32 0 C322.36 0, 612.71 0, 1228 0 M32 0 C451.94 0, 871.88 0, 1228 0 M1228 0 C1249.33 0, 1260 10.67, 1260 32 M1228 0 C1249.33 0, 1260 10.67, 1260 32 M1260 32 C1260 271.77, 1260 511.54, 1260 668 M1260 32 C1260 269.67, 1260 507.35, 1260 668 M1260 668 C1260 689.33, 1249.33 700, 1228 700 M1260 668 C1260 689.33, 1249.33 700, 1228 700 M1228 700 C870.14 700, 512.28 700, 32 700 M1228 700 C957.81 700, 687.62 700, 32 700 M32 700 C10.67 700, 0 689.33, 0 668 M32 700 C10.67 700, 0 689.33, 0 668 M0 668 C0 496.87, 0 325.74, 0 32 M0 668 C0 464.18, 0 260.35, 0 32 M0 32 C0 10.67, 10.67 0, 32 0 M0 32 C0 10.67, 10.67 0, 32 0"/></g><g stroke-linecap="round"><g transform="translate(564.099650779598 10) rotate(0 325.74503471933986 1370.5)"><path fill="none" stroke-width="4" stroke="#1971c2" d="M0 0 C107.65 105.83, 593.68 178.17, 645.9 635 C698.12 1091.83, 368.73 2390, 313.3 2741 M0 0 C107.65 105.83, 593.68 178.17, 645.9 635 C698.12 1091.83, 368.73 2390, 313.3 2741"/></g><g transform="translate(564.099650779598 10) rotate(0 325.74503471933986 1370.5)"><path fill="none" stroke-width="4" stroke="#1971c2" d="M309.59 2716.28 C310.8 2724.37, 312.02 2732.47, 313.3 2741 M309.59 2716.28 C310.55 2722.66, 311.5 2729.05, 313.3 2741"/></g><g transform="translate(564.099650779598 10) rotate(0 325.74503471933986 1370.5)"><path fill="none" stroke-width="4" stroke="#1971c2" d="M326.35 2719.68 C322.07 2726.66, 317.8 2733.64, 313.3 2741 M326.35 2719.68 C322.98 2725.18, 319.61 2730.69, 313.3 2741"/></g></g><mask/><g stroke-linecap="round"><g transform="translate(879.3745590168983 1439) rotate(0 -105.30825299937601 656)"><path fill="none" stroke-width="4" stroke="#2f9e44" d="M0 0 C15.1 81, 142.91 267.33, 90.63 486 C38.34 704.67, -246.34 1174.33, -313.73 1312 M0 0 C15.1 81, 142.91 267.33, 90.63 486 C38.34 704.67, -246.34 1174.33, -313.73 1312"/></g><g transform="translate(879.3745590168983 1439) rotate(0 -105.30825299937601 656)"><path fill="none" stroke-width="4" stroke="#2f9e44" d="M-310.06 1287.27 C-311.51 1297.04, -312.96 1306.81, -313.73 1312 M-310.06 1287.27 C-311.42 1296.44, -312.78 1305.6, -313.73 1312"/></g><g transform="translate(879.3745590168983 1439) rotate(0 -105.30825299937601 656)"><path fill="none" stroke-width="4" stroke="#2f9e44" d="M-295.02 1295.42 C-302.42 1301.97, -309.81 1308.52, -313.73 1312 M-295.02 1295.42 C-301.96 1301.56, -308.89 1307.71, -313.73 1312"/></g></g><mask/></svg>